<svg width="411" height="201" viewBox="0 0 411 201" fill="none" xmlns="http://www.w3.org/2000/svg">
    <path d="M133.398 150.258C133.398 142.805 134.852 136.102 137.758 130.148C140.711 124.195 144.789 119.602 149.992 116.367C155.242 113.133 161.219 111.516 167.922 111.516C178.281 111.516 186.648 115.102 193.023 122.273C199.445 129.445 202.656 138.984 202.656 150.891V151.805C202.656 159.211 201.227 165.867 198.367 171.773C195.555 177.633 191.5 182.203 186.203 185.484C180.953 188.766 174.906 190.406 168.062 190.406C157.75 190.406 149.383 186.82 142.961 179.648C136.586 172.477 133.398 162.984 133.398 151.172V150.258ZM146.477 151.805C146.477 160.242 148.422 167.016 152.312 172.125C156.25 177.234 161.5 179.789 168.062 179.789C174.672 179.789 179.922 177.211 183.812 172.055C187.703 166.852 189.648 159.586 189.648 150.258C189.648 141.914 187.656 135.164 183.672 130.008C179.734 124.805 174.484 122.203 167.922 122.203C161.5 122.203 156.32 124.758 152.383 129.867C148.445 134.977 146.477 142.289 146.477 151.805ZM233.102 189H220.094V81H233.102V189ZM268.117 189H255.109V81H268.117V189ZM335.969 189C335.219 187.5 334.609 184.828 334.141 180.984C328.094 187.266 320.875 190.406 312.484 190.406C304.984 190.406 298.82 188.297 293.992 184.078C289.211 179.812 286.82 174.422 286.82 167.906C286.82 159.984 289.82 153.844 295.82 149.484C301.867 145.078 310.352 142.875 321.273 142.875H333.93V136.898C333.93 132.352 332.57 128.742 329.852 126.07C327.133 123.352 323.125 121.992 317.828 121.992C313.188 121.992 309.297 123.164 306.156 125.508C303.016 127.852 301.445 130.688 301.445 134.016H288.367C288.367 130.219 289.703 126.562 292.375 123.047C295.094 119.484 298.75 116.672 303.344 114.609C307.984 112.547 313.07 111.516 318.602 111.516C327.367 111.516 334.234 113.719 339.203 118.125C344.172 122.484 346.75 128.508 346.938 136.195V171.211C346.938 178.195 347.828 183.75 349.609 187.875V189H335.969ZM314.383 179.086C318.461 179.086 322.328 178.031 325.984 175.922C329.641 173.812 332.289 171.07 333.93 167.695V152.086H323.734C307.797 152.086 299.828 156.75 299.828 166.078C299.828 170.156 301.188 173.344 303.906 175.641C306.625 177.938 310.117 179.086 314.383 179.086Z" fill="#96CBB8"/>
    <path d="M9.04336e-06 10C9.30762e-06 4.47715 4.47716 0 10 0H36C41.5229 0 46 4.47715 46 10L46 189.391C46 194.956 41.4563 199.451 35.8913 199.39L9.89132 199.108C4.41119 199.048 2.11081e-07 194.589 4.73312e-07 189.108L9.04336e-06 10Z" fill="#96CBB8"/>
    <path d="M137 99.9012C137 155.055 95.4395 199.765 44.172 199.765C-7.09557 199.765 0.640203 163.286 0.640203 108.133C0.640203 52.9796 -7.09557 0.0372701 44.172 0.0372701C95.4395 0.0372701 137 44.7479 137 99.9012Z" fill="#96CBB8"/>
    <path d="M51.3687 42.9937C51.3722 41.8916 52.2666 41 53.3687 41H64C65.1046 41 66 41.8954 66 43V158C66 159.105 65.1046 160 64 160H53.0063C51.8993 160 51.0028 159.101 51.0063 157.994L51.3687 42.9937Z" fill="white"/>
    <path d="M93 67.3333L86.9535 80C80.7258 72.6129 77.1414 70.386 67 70V54C79.9197 56.1099 85.7078 58.9225 93 67.3333Z" fill="white"/>
    <path d="M30.0465 121L24 133.667C31.2922 142.078 37.0803 144.89 50 147V131C39.8586 130.614 36.2742 128.387 30.0465 121Z" fill="white"/>
    <path d="M50 105V54L28 77.5385L50 105Z" fill="white"/>
    <path d="M67 147L89 119L67 95V147Z" fill="white"/>
</svg>

