<svg width="137" height="201" viewBox="0 0 137 201" fill="none" xmlns="http://www.w3.org/2000/svg">
    <path d="M9.04336e-06 10C9.30762e-06 4.47715 4.47716 0 10 0H36C41.5228 0 46 4.47715 46 10L46 189.391C46 194.956 41.4563 199.451 35.8913 199.39L9.89132 199.108C4.41119 199.048 2.11081e-07 194.589 4.73312e-07 189.108L9.04336e-06 10Z" fill="#96CBB8"/>
    <path d="M137 99.9012C137 155.055 95.4395 199.765 44.172 199.765C-7.09557 199.765 0.640203 163.286 0.640203 108.133C0.640203 52.9796 -7.09557 0.0372701 44.172 0.0372701C95.4395 0.0372701 137 44.7479 137 99.9012Z" fill="#96CBB8"/>
    <path d="M51.3687 42.9937C51.3722 41.8916 52.2666 41 53.3687 41H64C65.1046 41 66 41.8954 66 43V158C66 159.105 65.1046 160 64 160H53.0063C51.8993 160 51.0028 159.101 51.0063 157.994L51.3687 42.9937Z" fill="white"/>
    <path d="M93 67.3333L86.9535 80C80.7258 72.6129 77.1414 70.386 67 70V54C79.9197 56.1099 85.7078 58.9225 93 67.3333Z" fill="white"/>
    <path d="M30.0465 121L24 133.667C31.2922 142.078 37.0803 144.89 50 147V131C39.8586 130.614 36.2742 128.387 30.0465 121Z" fill="white"/>
    <path d="M50 105V54L28 77.5385L50 105Z" fill="white"/>
    <path d="M67 147L89 119L67 95V147Z" fill="white"/>
</svg>

